# xmcd
#
# Track frame offsets:
#	180
#	10556
#	25965
#	40245
#	51976
#	64758
#	74943
#	88177
#
# Disc length: 1415 seconds
#
# Revision: 0
# Processed by: cddbd v1.5.1PL2 Copyright (c) Steve Scherf et al.
# Submitted via: audiograbber 1.83.01
#
DISCID=6e058508
DTITLE=Even Cowgirls get the Blues - Yeehaw!
DYEAR=1993
DGENRE=Country
TTITLE0=Ring of fire
TTITLE1=24 hours
TTITLE2=Maniac monday
TTITLE3=Loveline
TTITLE4=Jolene
TTITLE5=Cooking song
TTITLE6=Sugartown
TTITLE7=Heart like mine
EXTD=
EXTT0=
EXTT1=
EXTT2=
EXTT3=
EXTT4=
EXTT5=
EXTT6=
EXTT7=
PLAYORDER=
